<svg xmlns="http://www.w3.org/2000/svg" viewBox="0 0 88.22 110.44"><defs><style>.cls-1{fill:#dd1e50;}.cls-2{fill:#fff;}</style></defs><g id="Layer_2" data-name="Layer 2"><g id="Layer_1-2" data-name="Layer 1"><g id="White_Lockup" data-name="White Lockup"><g id="White_Logo" data-name="White Logo"><path id="Lower_Right_tear" data-name="Lower Right tear" class="cls-1" d="M47.8,80.49A78.4,78.4,0,0,1,44.18,90l-.07.15v20.29a4,4,0,0,0,3.34-2.29c.56-1.11,1.79-3.26,3.79-7,4.34-8.18,7-14.71,8.42-20.64Z"/><path id="Lower_left_tear" data-name="Lower left tear" class="cls-1" d="M40.42,80.49H28.56C30,86.42,32.64,93,37,101.13c2,3.76,3.23,5.91,3.79,7a4,4,0,0,0,3.34,2.29V90.15L44,90A78.4,78.4,0,0,1,40.42,80.49Z"/><path id="Upper_right_tear" data-name="Upper right tear" class="cls-2" d="M61.22,67.35c0-9-3.8-25.8-16.59-26.18l-.52,0H44v11c4.87,1.09,6,12.09,6,14.79A46.9,46.9,0,0,1,47.8,80.49H59.66A53.54,53.54,0,0,0,61.22,67.35Z"/><path id="Upper_left_tear" data-name="Upper left tear" class="cls-2" d="M38.19,67c0-2.7,1.12-13.7,6-14.79v-11h-.07l-.52,0C30.8,41.55,27,58.34,27,67.35a53.54,53.54,0,0,0,1.56,13.14H40.42A46.9,46.9,0,0,1,38.19,67Z"/><path id="Triangle" class="cls-2" d="M81.75,81.91h-76a4.25,4.25,0,0,1-1.93-.42A6.4,6.4,0,0,1,.6,73L31,8.33A14.34,14.34,0,0,1,44.11,0h0A14.47,14.47,0,0,1,57.22,8.33L87.62,73a6.24,6.24,0,0,1-.6,6.34A6.46,6.46,0,0,1,81.75,81.91ZM14.9,70.17H73.32L46.59,13.32a2.66,2.66,0,0,0-2.48-1.57h0a2.68,2.68,0,0,0-2.49,1.57Z"/></g></g></g></g></svg>